<?xml version="1.0" encoding="UTF-8"?>
<svg width="90px" height="90px" viewBox="0 0 90 90" version="1.1" xmlns="http://www.w3.org/2000/svg" xmlns:xlink="http://www.w3.org/1999/xlink">
    <!-- Generator: Sketch 51.1 (57501) - http://www.bohemiancoding.com/sketch -->
    <title>No tracking information</title>
    <desc>Created with Sketch.</desc>
    <defs>
        <rect id="path-1" x="0" y="0" width="90" height="90"></rect>
    </defs>
    <g id="img-res" stroke="none" stroke-width="1" fill="none" fill-rule="evenodd">
        <g id="No-tracking-information">
            <g>
                <mask id="mask-2" fill="white">
                    <use xlink:href="#path-1"></use>
                </mask>
                <g id="Rectangle"></g>
                <path d="M23.6755848,64.5 L16,64.5 L16,49.25 L74,49.25 L74,64.5 L66.3244152,64.5 L65.9921825,62.9087634 C65.28148,59.5048358 62.1643725,57 58.5,57 C54.8356275,57 51.71852,59.5048358 51.0078175,62.9087634 L50.6755848,64.5 L39.3244152,64.5 L38.9921825,62.9087634 C38.28148,59.5048358 35.1643725,57 31.5,57 C27.8356275,57 24.71852,59.5048358 24.0078175,62.9087634 L23.6755848,64.5 Z M31.5,72 C27.2124812,72 23.7142857,68.5989766 23.7142857,64.375 C23.7142857,60.1510234 27.2124812,56.75 31.5,56.75 C35.7875188,56.75 39.2857143,60.1510234 39.2857143,64.375 C39.2857143,68.5989766 35.7875188,72 31.5,72 Z M58.5,72 C54.2124812,72 50.7142857,68.5989766 50.7142857,64.375 C50.7142857,60.1510234 54.2124812,56.75 58.5,56.75 C62.7875188,56.75 66.2857143,60.1510234 66.2857143,64.375 C66.2857143,68.5989766 62.7875188,72 58.5,72 Z M21,23 L49.7142857,23 C52.463297,23 54.7142857,25.1884613 54.7142857,27.9166667 L54.7142857,49.5 L16,49.5 L16,27.9166667 C16,25.1884613 18.2509887,23 21,23 Z M54.5714286,26.75 L63,26.75 C69.0627198,26.75 74,31.5501336 74,37.5 L74,49.5 L54.5714286,49.5 L54.5714286,26.75 Z" id="Combined-Shape" stroke="#C9D1DD" stroke-width="4" stroke-linecap="square" mask="url(#mask-2)"></path>
            </g>
        </g>
    </g>
</svg>