<?xml version="1.0" encoding="UTF-8"?>
<svg width="30px" height="30px" viewBox="0 0 30 30" version="1.1" xmlns="http://www.w3.org/2000/svg" xmlns:xlink="http://www.w3.org/1999/xlink">
    <!-- Generator: Sketch 51.1 (57501) - http://www.bohemiancoding.com/sketch -->
    <title>icon/light/usd</title>
    <desc>Created with Sketch.</desc>
    <defs>
        <rect id="path-1" x="0" y="0" width="30" height="30"></rect>
    </defs>
    <g id="img-res" stroke="none" stroke-width="1" fill="none" fill-rule="evenodd">
        <g id="icon/toolbar/user_n-copy-2">
            <g id="Group-64">
                <g id="icon/light/usd">
                    <mask id="mask-2" fill="white">
                        <use xlink:href="#path-1"></use>
                    </mask>
                    <g id="Rectangle" opacity="0" fill-rule="nonzero"></g>
                    <path d="M15,28 C7.82029825,28 2,22.1797017 2,15 C2,7.82029825 7.82029825,2 15,2 C22.1797017,2 28,7.82029825 28,15 C28,22.1797017 22.1797017,28 15,28 Z M15,27 C21.627417,27 27,21.627417 27,15 C27,8.372583 21.627417,3 15,3 C8.372583,3 3,8.372583 3,15 C3,21.627417 8.372583,27 15,27 Z M15,26 C8.92486775,26 4,21.0751322 4,15 C4,8.92486775 8.92486775,4 15,4 C21.0751322,4 26,8.92486775 26,15 C26,21.0751322 21.0751322,26 15,26 Z M18.8714859,11.0092119 C18.1646586,10.3357216 17.313253,9.8198567 16.1405622,9.66223132 L16.1405622,8 L14.2610442,8 L14.2610442,9.69089048 C12.5100402,10.0061412 11.4658635,11.1381781 11.4658635,12.7717503 C11.4658635,15.6949846 16.2690763,15.7379734 16.2690763,17.2998976 C16.2690763,18.0020471 15.8353414,18.345957 14.8393574,18.345957 C14.0040161,18.345957 13.2008032,18.0450358 12.253012,17.4002047 L11,19.1197544 C11.8835341,19.8362334 13.184739,20.2661208 14.2610442,20.3807574 L14.2610442,22 L16.1405622,22 L16.1405622,20.2947799 C18.0522088,19.9222108 19,18.6898669 19,17.1136131 C19,14.0327533 14.1807229,14.1044012 14.1807229,12.6571136 C14.1807229,11.9406346 14.6305221,11.6683726 15.4819277,11.6683726 C16.2208835,11.6683726 16.7991968,11.9406346 17.4578313,12.4708291 L18.8714859,11.0092119 Z" id="Combined-Shape-Copy-3" fill="#3581FF" mask="url(#mask-2)"></path>
                </g>
            </g>
        </g>
    </g>
</svg>