<?xml version="1.0" encoding="UTF-8"?>
<svg width="30px" height="30px" viewBox="0 0 30 30" version="1.1" xmlns="http://www.w3.org/2000/svg" xmlns:xlink="http://www.w3.org/1999/xlink">
    <!-- Generator: Sketch 51.1 (57501) - http://www.bohemiancoding.com/sketch -->
    <title>icon/light/bch</title>
    <desc>Created with Sketch.</desc>
    <defs>
        <rect id="path-1" x="0" y="0" width="30" height="30"></rect>
    </defs>
    <g id="img-res" stroke="none" stroke-width="1" fill="none" fill-rule="evenodd">
        <g id="icon/toolbar/home_n-copy-2">
            <g id="Group-61">
                <g id="icon/light/bch">
                    <mask id="mask-2" fill="white">
                        <use xlink:href="#path-1"></use>
                    </mask>
                    <g id="Rectangle" opacity="0" fill-rule="nonzero"></g>
                    <path d="M15,19.9997083 L15,22 L16,22 L16,19.9255464 C17.7382573,19.6704296 19,18.7515078 19,17.0430108 C19,15.7123656 18.2027972,14.9596774 17.1538462,14.6908602 L17.1538462,14.6370968 C17.993007,14.327957 18.5104895,13.3602151 18.5104895,12.4731183 C18.5104895,10.9802534 17.472689,10.314458 16,10.0915573 L16,8 L15,8 L15,10.0055167 C14.8803535,10.0017884 14.7590621,10 14.6363636,10 L14,10 L14,8 L13,8 L13,10 L11,10 L11,20 L13,20 L13,22 L14,22 L14,20 L14.9300699,20 C14.9534295,20 14.97674,19.9999028 15,19.9997083 Z M15,28 C7.82029825,28 2,22.1797017 2,15 C2,7.82029825 7.82029825,2 15,2 C22.1797017,2 28,7.82029825 28,15 C28,22.1797017 22.1797017,28 15,28 Z M15,27 C21.627417,27 27,21.627417 27,15 C27,8.372583 21.627417,3 15,3 C8.372583,3 3,8.372583 3,15 C3,21.627417 8.372583,27 15,27 Z M15,26 C8.92486775,26 4,21.0751322 4,15 C4,8.92486775 8.92486775,4 15,4 C21.0751322,4 26,8.92486775 26,15 C26,21.0751322 21.0751322,26 15,26 Z M13.5034965,13.9650538 L14.5384615,13.9650538 C15.6013986,13.9650538 16.0769231,13.5215054 16.0769231,12.8360215 C16.0769231,12.1236559 15.5874126,11.827957 14.5384615,11.827957 L13.5034965,11.827957 L13.5034965,13.9650538 Z M13.5034965,18.1586022 L14.7482517,18.1586022 C15.951049,18.1586022 16.5664336,17.7419355 16.5664336,16.8817204 C16.5664336,16.061828 15.965035,15.7392473 14.7482517,15.7392473 L13.5034965,15.7392473 L13.5034965,18.1586022 Z" id="Combined-Shape-Copy" fill="#FF9900" mask="url(#mask-2)"></path>
                </g>
            </g>
        </g>
    </g>
</svg>