<?xml version="1.0" encoding="UTF-8"?>
<svg width="30px" height="30px" viewBox="0 0 30 30" version="1.1" xmlns="http://www.w3.org/2000/svg" xmlns:xlink="http://www.w3.org/1999/xlink">
    <!-- Generator: Sketch 51.2 (57519) - http://www.bohemiancoding.com/sketch -->
    <title>icon/light/eth</title>
    <desc>Created with Sketch.</desc>
    <defs></defs>
    <g id="切图" stroke="none" stroke-width="1" fill="none" fill-rule="evenodd">
        <g id="icon/light/eth" fill="#B187FF">
            <path d="M15.1807098,23.7589476 L21.0020162,16.0236704 L21.0020162,16.0055528 L15.1807098,18.9070514 L15.1807098,23.7589476 Z M14.8278656,23.7677718 L14.8278656,18.9145559 L9,16.0034976 L9,15 L14.8278656,17.9234237 L14.8278656,12.0782935 L9.00342322,15 L9.00342322,14.596427 L14.8278656,11.6750756 L14.8278656,6.25394967 L8.99991844,14.5685791 L8.99991844,16.0236704 L14.8278656,23.7677718 Z M15.1807098,6.26342403 L15.1807098,11.6728634 L21.0020162,14.5926419 L21.0020162,14.5685791 L15.1807098,6.26342403 Z M15.1807098,12.0823993 L15.1807098,17.9158873 L21.0020162,15.0020639 L21.0020162,14.9962226 L15.1807098,12.0823993 Z M15,28 C7.82029825,28 2,22.1797017 2,15 C2,7.82029825 7.82029825,2 15,2 C22.1797017,2 28,7.82029825 28,15 C28,22.1797017 22.1797017,28 15,28 Z M15,27 C21.627417,27 27,21.627417 27,15 C27,8.372583 21.627417,3 15,3 C8.372583,3 3,8.372583 3,15 C3,21.627417 8.372583,27 15,27 Z M15,26 C8.92486775,26 4,21.0751322 4,15 C4,8.92486775 8.92486775,4 15,4 C21.0751322,4 26,8.92486775 26,15 C26,21.0751322 21.0751322,26 15,26 Z" id="Combined-Shape"></path>
        </g>
    </g>
</svg>