<?xml version="1.0" encoding="UTF-8"?>
<svg width="30px" height="30px" viewBox="0 0 30 30" version="1.1" xmlns="http://www.w3.org/2000/svg" xmlns:xlink="http://www.w3.org/1999/xlink">
    <!-- Generator: Sketch 51.2 (57519) - http://www.bohemiancoding.com/sketch -->
    <title>icon/light/etc</title>
    <desc>Created with Sketch.</desc>
    <defs></defs>
    <g id="切图" stroke="none" stroke-width="1" fill="none" fill-rule="evenodd">
        <g id="icon/light/etc" fill="#52EF78">
            <g id="Group">
                <path d="M21.0020162,15.0020639 L21.0020162,14.9962226 L15,11.9919459 L9.00342322,15 L9.00342322,14.0090835 L8.99991844,14.0137824 L8.99991844,15.997444 L9,15 L14.9965768,18.0080541 L21.0020162,15.0020639 Z M20.9923248,16.0103833 L14.9965768,18.9988283 L9.0071141,16.0070511 L15.0009673,24.0096154 L20.9923248,16.0103833 Z M20.9770345,13.9802894 L15.0009673,5.96816117 L9.01837946,13.9890317 L15,11.0011717 L20.9770345,13.9802894 Z M15,28 C7.82029825,28 2,22.1797017 2,15 C2,7.82029825 7.82029825,2 15,2 C22.1797017,2 28,7.82029825 28,15 C28,22.1797017 22.1797017,28 15,28 Z M15,27 C21.627417,27 27,21.627417 27,15 C27,8.372583 21.627417,3 15,3 C8.372583,3 3,8.372583 3,15 C3,21.627417 8.372583,27 15,27 Z M15,26 C8.92486775,26 4,21.0751322 4,15 C4,8.92486775 8.92486775,4 15,4 C21.0751322,4 26,8.92486775 26,15 C26,21.0751322 21.0751322,26 15,26 Z" id="Combined-Shape"></path>
            </g>
        </g>
    </g>
</svg>